#!OML:ASF E:\emotionWalksFemale\Project 1\Capture day 1\Session 1\Female1.ASF
:FULLY-SPECIFIED
:DEGREES
1283
root 10.4925 15.3423 37.1946 -185.073 -169.257 -181.11
lowerback 9.45876 0.237721 1.98133
upperback -5.02241 0.711633 1.1829
thorax -10.719 0.249286 0.026841
lowerneck -12.2755 0.0168462 -5.43426
upperneck 17.4232 -0.31976 7.45448
head 7.37732 0.170789 3.31938
rclavicle -2.56432e-014 9.54166e-015
rhumerus -45.7692 9.72617 -90.4113
rradius 66.6864
rwrist 13.4924
rhand -18.4268 -43.7029
rfingers 7.12502
rthumb 7.85846 646.463
lclavicle -2.56432e-014 9.54166e-015
lhumerus -42.4805 -0.345481 74.9324
lradius 35.7588
lwrist -24.2587
lhand 2.72028 -29.0913
lfingers 7.12502
lthumb 28.1932 -1.19171
rfemur -17.6264 -7.87922 25.1628
rtibia 63.1703
rfoot -14.042 -15.0779
rtoes -6.36497
lfemur -11.4056 -17.1008 -22.5481
ltibia 21.9536
lfoot -7.04926 11.444
ltoes -42.0892
1284
root 10.4902 15.3393 37.2917 -185.05 -169.459 -181.051
lowerback 9.37449 0.301572 1.87077
upperback -5.04972 0.77686 1.14907
thorax -10.6985 0.28715 0.0410151
lowerneck -12.2355 -0.220181 -5.85165
upperneck 17.4062 -0.616817 7.73263
head 7.38656 0.0254283 3.45288
rclavicle -2.15681e-014 2.50469e-014
rhumerus -45.8912 9.00052 -89.8397
rradius 64.4419
rwrist 13.8015
rhand -18.1846 -43.8649
rfingers 7.12502
rthumb 8.09217 646.31
lclavicle -2.15681e-014 2.50469e-014
lhumerus -40.86 -1.03587 75.1501
lradius 37.6251
lwrist -20.9615
lhand 2.27304 -28.9523
lfingers 7.12502
lthumb 27.7657 -0.982928
rfemur -17.7995 -8.20896 25.3508
rtibia 61.9021
rfoot -14.457 -16.1391
rtoes -9.45839
lfemur -11.2018 -17.0574 -22.8177
ltibia 22.3033
lfoot -6.93463 11.2719
ltoes -40.5268
1285
root 10.4879 15.3326 37.3851 -184.99 -169.627 -181.002
lowerback 9.31238 0.266695 1.58634
upperback -5.08739 0.692048 1.17679
thorax -10.7072 0.267929 0.246866
lowerneck -12.2128 -0.25957 -5.88042
upperneck 17.3629 -0.663229 7.72657
head 7.37199 0.000156519 3.45011
rclavicle -1.58034e-014 1.03368e-014
rhumerus -46.049 8.8006 -89.5673
rradius 62.403
rwrist 14.3695
rhand -17.4506 -44.5252
rfingers 7.12502
rthumb 8.80054 645.678
lclavicle -1.58034e-014 1.03368e-014
lhumerus -39.425 -1.27535 75.0883
lradius 39.6601
lwrist -17.959
lhand 1.89668 -29.1359
lfingers 7.12502
lthumb 27.4058 -1.10902
rfemur -18.0108 -8.49682 25.5815
rtibia 60.5893
rfoot -15.6964 -17.2359
rtoes -5.1004
lfemur -11.1975 -16.8082 -23.0497
ltibia 22.8585
lfoot -7.17544 11.2119
ltoes -40.1648
1286
root 10.4874 15.3208 37.4723 -184.871 -169.814 -180.773
lowerback 9.29389 0.173656 0.979396
upperback -5.09645 0.48083 1.16326
thorax -10.7111 0.209642 0.612712
lowerneck -12.4458 -0.200978 -5.64631
upperneck 17.2913 -0.608146 7.68739
head 7.38599 0.0424049 3.40345
rclavicle 4.17448e-015 9.14409e-015
rhumerus -46.1151 8.92845 -89.4535
rradius 60.7346
rwrist 15.1031
rhand -16.3715 -45.1161
rfingers 7.12502
rthumb 9.84172 645.134
lclavicle 4.17448e-015 9.14409e-015
lhumerus -37.8957 -1.52923 74.8913
lradius 41.7567
lwrist -15.1597
lhand 1.35597 -29.4828
lfingers 7.12502
lthumb 26.8885 -1.37516
rfemur -18.3556 -8.79496 25.6069
rtibia 59.2871
rfoot -16.5396 -18.4062
rtoes -3.73009
lfemur -11.4054 -16.5216 -23.4355
ltibia 23.5561
lfoot -7.5988 10.9942
ltoes -40.6645
1287
root 10.4864 15.3097 37.5431 -184.475 -170.307 -180.756
lowerback 9.26412 0.205053 0.839072
upperback -5.30782 0.506054 1.1609
thorax -10.931 0.231419 0.685831
lowerneck -12.3059 -0.468672 -6.15261
upperneck 17.1318 -0.923481 7.95341
head 7.33459 -0.120728 3.54232
rclavicle -5.46658e-015 9.54166e-015
rhumerus -46.4886 8.50667 -88.8252
rradius 59.1372
rwrist 15.4503
rhand -16.2448 -45.1481
rfingers 7.12502
rthumb 9.964 645.108
lclavicle -5.46658e-015 9.54166e-015
lhumerus -36.4319 -2.35163 75.1753
lradius 43.9803
lwrist -13.088
lhand 1.02558 -29.2832
lfingers 7.12502
lthumb 26.5723 -1.1273
rfemur -18.9424 -9.282 25.8952
rtibia 57.9466
rfoot -16.76 -19.5946
rtoes -5.67623
lfemur -11.981 -16.2877 -23.4939
ltibia 24.2755
lfoot -8.21707 10.2523
ltoes -40.6871
1288
root 10.4894 15.2991 37.633 -184.384 -170.432 -180.673
lowerback 9.26639 0.253364 0.639016
upperback -5.39289 0.543331 1.151
thorax -11.0298 0.263632 0.781337
lowerneck -12.2852 -0.586375 -6.23686
upperneck 17.0852 -1.05975 7.91253
head 7.32675 -0.195753 3.52859
rclavicle -2.03257e-014 -1.43125e-014
rhumerus -46.8147 8.4563 -88.4449
rradius 57.349
rwrist 15.3063
rhand -16.0958 -45.6732
rfingers 7.12502
rthumb 10.1077 644.59
lclavicle -2.03257e-014 -1.43125e-014
lhumerus -35.2027 -2.85666 75.2029
lradius 46.3213
lwrist -11.5118
lhand 0.642687 -29.075
lfingers 7.12502
lthumb 26.2058 -0.864127
rfemur -19.0701 -9.68344 25.981
rtibia 56.5636
rfoot -16.8424 -20.4015
rtoes -8.70144
lfemur -12.0809 -16.2137 -23.7502
ltibia 24.9876
lfoot -9.11892 10.2086
ltoes -39.6345
1289
root 10.4906 15.2932 37.7179 -184.357 -171.073 -180.666
lowerback 9.36765 0.103844 0.517949
upperback -5.45805 0.322851 1.10792
thorax -11.1621 0.165286 0.844791
lowerneck -12.0592 -0.665156 -6.33574
upperneck 16.792 -1.16871 8.03898
head 7.20087 -0.248303 3.56938
rclavicle 2.93207e-015 1.37161e-014
rhumerus -46.9575 8.35136 -88.047
rradius 55.5556
rwrist 16.0604
rhand -14.1253 -46.8259
rfingers 7.12502
rthumb 12.0083 643.539
lclavicle 2.93207e-015 1.37161e-014
lhumerus -34.0132 -3.45145 75.1016
lradius 48.6188
lwrist -10.2123
lhand -1.08488 -29.4864
lfingers 7.12502
lthumb 24.5508 -1.04037
rfemur -19.0236 -10.465 26.0706
rtibia 55.0979
rfoot -17.5571 -20.8933
rtoes -8.53817
lfemur -12.143 -16.3062 -23.9544
ltibia 25.6463
lfoot -9.59213 9.81375
ltoes -37.5987
1290
root 10.4924 15.2902 37.7986 -184.235 -171.344 -180.886
lowerback 9.39218 0.0798409 0.722628
upperback -5.46335 0.319164 1.0975
thorax -11.1818 0.147608 0.719061
lowerneck -11.8145 -0.853002 -6.71604
upperneck 16.3016 -1.41484 8.44867
head 7.02289 -0.361203 3.73494
rclavicle -3.08116e-015 -5.96354e-016
rhumerus -46.8987 8.03259 -87.4781
rradius 54.0173
rwrist 17.4239
rhand -11.5917 -47.8275
rfingers 7.12502
rthumb 14.4504 642.696
lclavicle -3.08116e-015 -5.96354e-016
lhumerus -32.6968 -4.17161 74.9523
lradius 50.9058
lwrist -9.20932
lhand -3.23763 -29.5832
lfingers 7.12502
lthumb 22.4859 -0.872352
rfemur -19.019 -10.5746 26.4436
rtibia 53.5895
rfoot -18.6877 -21.4029
rtoes -6.21407
lfemur -12.2115 -16.374 -23.858
ltibia 26.1961
lfoot -9.89893 9.605
ltoes -35.4207
1291
root 10.4904 15.2851 37.876 -184.112 -171.524 -180.903
lowerback 9.36452 0.128795 0.65263
upperback -5.42616 0.369852 1.05269
thorax -11.1235 0.175162 0.700154
lowerneck -11.7798 -1.02571 -6.84582
upperneck 15.8995 -1.632 8.59032
head 6.90771 -0.463712 3.77543
rclavicle 2.73329e-015 5.96354e-015
rhumerus -46.856 7.77183 -86.9239
rradius 52.6868
rwrist 17.9193
rhand -9.8079 -48.7504
rfingers 7.12502
rthumb 16.1686 641.904
lclavicle 2.73329e-015 5.96354e-015
lhumerus -31.2102 -4.99713 74.8018
lradius 52.9934
lwrist -8.41252
lhand -3.16001 -29.1843
lfingers 7.12502
lthumb 22.5604 -0.482436
rfemur -18.9706 -10.5326 26.581
rtibia 52.0707
rfoot -21.8769 -21.0565
rtoes 7.52754
lfemur -12.2804 -16.4847 -23.9519
ltibia 26.6864
lfoot -10.7614 9.5094
ltoes -34.4507
1292
root 10.4834 15.2763 37.947 -183.92 -171.827 -180.773
lowerback 9.24031 0.200242 0.354926
upperback -5.40378 0.405193 0.881979
thorax -11.0238 0.206631 0.67662
lowerneck -11.7503 -1.12793 -6.47496
upperneck 15.5294 -1.81512 8.54236
head 6.79652 -0.536127 3.67302
rclavicle -2.33572e-015 1.98785e-015
rhumerus -46.7564 7.27493 -86.4449
rradius 51.2185
rwrist 18.3989
rhand -7.44423 -49.495
rfingers 7.12502
rthumb 18.4435 641.359
lclavicle -2.33572e-015 1.98785e-015
lhumerus -29.603 -6.11542 74.5071
lradius 54.9239
lwrist -7.91916
lhand -1.79644 -29.1107
lfingers 7.12502
lthumb 23.8686 -0.57379
rfemur -19.0783 -10.8108 26.6195
rtibia 50.5372
rfoot -23.0899 -21.4452
rtoes 13.1572
lfemur -12.52 -16.4593 -24.1517
ltibia 27.24
lfoot -11.4502 9.27822
ltoes -36.0528
1293
root 10.4825 15.2618 38.0391 -184.138 -171.711 -180.857
lowerback 9.29221 0.492807 0.542619
upperback -5.30422 0.788746 0.517301
thorax -10.9384 0.360135 0.105954
lowerneck -11.3471 -1.33516 -5.75508
upperneck 15.0838 -2.24027 8.61392
head 6.61234 -0.705606 3.52745
rclavicle 1.02871e-014 -1.21756e-014
rhumerus -46.8585 6.08908 -86.0756
rradius 49.7765
rwrist 19.1756
rhand -4.6928 -50.1858
rfingers 7.12502
rthumb 21.0885 640.941
lclavicle 1.02871e-014 -1.21756e-014
lhumerus -28.1212 -7.75043 73.9885
lradius 56.923
lwrist -7.81613
lhand -1.26625 -28.8876
lfingers 7.12502
lthumb 24.377 -0.418161
rfemur -18.6781 -11.0023 26.8688
rtibia 49.0136
rfoot -22.6777 -23.0871
rtoes 8.7083
lfemur -12.1221 -16.3752 -24.3039
ltibia 27.8094
lfoot -12.1236 9.47748
ltoes -36.9528
1294
root 10.4767 15.2494 38.1093 -183.928 -171.888 -181.058
lowerback 9.38688 0.422885 0.560652
upperback -5.38988 0.705478 0.582552
thorax -11.0925 0.321309 0.180856
lowerneck -11.2507 -1.42297 -6.00515
upperneck 14.8943 -2.33985 8.80475
head 6.54756 -0.756499 3.61984
rclavicle -6.33626e-015 1.46604e-014
rhumerus -46.749 6.37124 -85.7856
rradius 48.5062
rwrist 19.1449
rhand -2.69379 -51.4785
rfingers 7.12502
rthumb 23.0078 639.875
lclavicle -6.33626e-015 1.46604e-014
lhumerus -27.0466 -8.20361 73.6144
lradius 58.8397
lwrist -7.93534
lhand -1.35882 -28.7672
lfingers 7.12502
lthumb 24.2882 -0.285785
rfemur -18.8158 -11.2345 27.4308
rtibia 47.6445
rfoot -22.3302 -25.2386
rtoes 4.41059
lfemur -12.2886 -16.2685 -24.1323
ltibia 28.2597
lfoot -12.7134 9.27953
ltoes -37.4459
1295
root 10.4744 15.2412 38.1816 -183.953 -171.845 -181.182
lowerback 9.50886 0.531675 0.689605
upperback -5.29912 0.857816 0.452241
thorax -11.0599 0.378872 -0.0619155
lowerneck -11.2929 -1.61388 -5.81853
upperneck 14.6664 -2.61906 8.80088
head 6.50323 -0.882527 3.55833
rclavicle -3.98843e-014 -9.10061e-015
rhumerus -46.53 6.39302 -85.7076
rradius 47.2081
rwrist 19.2981
rhand -1.39474 -52.7169
rfingers 7.12502
rthumb 24.2538 638.797
lclavicle -3.98843e-014 -9.10061e-015
lhumerus -25.574 -9.24442 73.097
lradius 60.444
lwrist -7.79615
lhand -1.31327 -29.2223
lfingers 7.12502
lthumb 24.3319 -0.746731
rfemur -18.3507 -11.1805 27.7749
rtibia 45.9515
rfoot -24.0697 -25.8192
rtoes 10.689
lfemur -12.2903 -16.1675 -24.1137
ltibia 28.9447
lfoot -13.3087 9.30908
ltoes -36.8047
1296
root 10.4691 15.2494 38.2526 -184.077 -171.833 -181.069
lowerback 9.58301 0.48658 0.374849
upperback -5.17291 0.760652 0.540192
thorax -10.9687 0.360029 0.228157
lowerneck -11.3198 -1.56759 -6.06056
upperneck 14.4488 -2.49181 8.77893
head 6.43125 -0.837653 3.60025
rclavicle 4.71182e-015 1.62506e-014
rhumerus -46.3741 7.25381 -85.543
rradius 46.1521
rwrist 21.1663
rhand 2.01058 -55.8561
rfingers 7.12502
rthumb 27.5147 636.134
lclavicle 4.71182e-015 1.62506e-014
lhumerus -24.3724 -9.39074 72.6735
lradius 61.996
lwrist -7.75946
lhand -0.906956 -29.3489
lfingers 7.12502
lthumb 24.7214 -0.92618
rfemur -17.5311 -10.9187 27.6877
rtibia 44.5359
rfoot -28.8868 -23.8374
rtoes 26.6591
lfemur -12.0911 -16.0317 -24.3583
ltibia 29.431
lfoot -13.7502 9.25394
ltoes -36.1049
1297
root 10.4629 15.1985 38.3374 -184.05 -171.763 -180.774
lowerback 9.45648 0.54683 -0.0480647
upperback -5.15676 0.77386 0.471796
thorax -10.8793 0.394444 0.391069
lowerneck -11.0314 -1.62567 -6.27586
upperneck 14.1489 -2.55079 8.9236
head 6.29498 -0.876053 3.67385
rclavicle 9.00743e-017 7.41715e-015
rhumerus -46.4397 7.85748 -85.4887
rradius 44.7179
rwrist 21.2827
rhand 1.58759 -56.0959
rfingers 7.12502
rthumb 27.1101 635.831
lclavicle 9.00743e-017 7.41715e-015
lhumerus -23.1901 -9.75211 72.1829
lradius 63.376
lwrist -7.70887
lhand -0.360015 -29.1989
lfingers 7.12502
lthumb 25.2455 -0.84908
rfemur -18.9231 -11.7861 28.0127
rtibia 42.9402
rfoot -12.2114 -34.9956
rtoes -21.1327
lfemur -12.0239 -16.0462 -24.7906
ltibia 29.7832
lfoot -14.27 9.26209
ltoes -35.3487
